<svg xmlns="http://www.w3.org/2000/svg" width="96" height="96" viewBox="0 0 96 96">
  <defs>
    <style>
      .cls-1 {
        fill: #1b1b1b;
        fill-rule: evenodd;
      }
    </style>
  </defs>
  <path id="_8_LS.svg" data-name="8_LS.svg" class="cls-1" d="M755,664c-7.168,0-13-5.063-13-11.286V650h2.764l6.114-12.235a15.765,15.765,0,0,1-7.1-3.124,11.842,11.842,0,0,0-5.78-2.508v34.789A25.457,25.457,0,0,0,746,668a2,2,0,0,1,0,4c-1.75,0-6.974-.139-10-1.629-3.027,1.49-8.25,1.629-10,1.629a2,2,0,0,1,0-4,25.462,25.462,0,0,0,8-1.078V632.133a11.85,11.85,0,0,0-5.781,2.508,15.765,15.765,0,0,1-7.1,3.124L727.235,650H730v2.714c0,6.223-5.832,11.286-13,11.286s-13-5.063-13-11.286V650h2.764l6.617-13.24c-1.717-.863-3.1-2.086-3.346-3.388a2,2,0,0,1,3.853-1.034A7.261,7.261,0,0,0,718.151,634a11.623,11.623,0,0,0,7.781-2.641A15.454,15.454,0,0,1,734,628.1V626a2,2,0,0,1,4,0v2.1a15.454,15.454,0,0,1,8.066,3.258A11.623,11.623,0,0,0,753.846,634a7.258,7.258,0,0,0,4.266-1.661,2,2,0,0,1,3.853,1.034c-0.246,1.3-1.629,2.525-3.346,3.388L765.236,650H768v2.714C768,658.937,762.168,664,755,664Zm-38-4c4.421,0,8.108-2.594,8.86-6h-17.72C708.89,657.406,712.577,660,717,660Zm0-21.536L711.233,650h11.53Zm38,0L749.234,650h11.53ZM746.139,654c0.752,3.406,4.439,6,8.86,6s8.108-2.594,8.86-6h-17.72ZM750,600a2,2,0,0,1-.93-0.23L712,580.259l-37.07,19.51a2,2,0,1,1-1.863-3.54l38-20a2.005,2.005,0,0,1,1.863,0l38,20A2,2,0,0,1,750,600Zm-46-6a8,8,0,1,1,8,8A8.009,8.009,0,0,1,704,594Zm12,0a4,4,0,1,0-4,4A4,4,0,0,0,716,594Zm14,28v-4.53a5.97,5.97,0,0,1-2.894-2.787l-0.9-1.788a2,2,0,0,1,3.578-1.79l0.895,1.789A1.989,1.989,0,0,0,732.471,614h9.056a1.99,1.99,0,0,0,1.789-1.105l0.895-1.79a2,2,0,1,1,3.577,1.79l-0.894,1.788A5.976,5.976,0,0,1,744,617.469V624h-4v-6h-6v4h-4Zm-54-18H748a2,2,0,0,1,0,4H676A2,2,0,0,1,676,604Zm22.9,41.317,0.895,1.789a2,2,0,1,1-3.578,1.789l-0.895-1.789A1.988,1.988,0,0,0,693.524,646h-9.056a1.988,1.988,0,0,0-1.789,1.105l-0.895,1.789a2,2,0,1,1-3.577-1.789l0.894-1.789A5.974,5.974,0,0,1,682,642.53V617.469a5.976,5.976,0,0,1-2.895-2.787l-0.894-1.789a2,2,0,1,1,3.577-1.788l0.895,1.788A1.989,1.989,0,0,0,684.468,614h9.056a1.989,1.989,0,0,0,1.789-1.106l0.895-1.788a2,2,0,0,1,3.578,1.788l-0.895,1.789A5.968,5.968,0,0,1,696,617.469V642.53A5.966,5.966,0,0,1,698.891,645.316ZM692,618h-6v24h6V618Zm-16,34h24a2,2,0,0,1,0,4H676A2,2,0,1,1,676,652ZM703.1,610.21a2,2,0,0,1,2.684.895l0.894,1.788A1.99,1.99,0,0,0,708.469,614h9.057a1.988,1.988,0,0,0,1.788-1.105l0.895-1.79a2,2,0,1,1,3.578,1.79l-0.895,1.788A5.97,5.97,0,0,1,720,617.469V628h-4V618h-6v10h-4v-10.53a5.976,5.976,0,0,1-2.895-2.787l-0.894-1.789A2,2,0,0,1,703.1,610.21Z" transform="translate(-672 -576)"/>
</svg>


