<svg xmlns="http://www.w3.org/2000/svg" width="96" height="96" viewBox="0 0 96 96">
  <defs>
    <style>
      .cls-1 {
        fill: #1b1b1b;
        fill-rule: evenodd;
      }
    </style>
  </defs>
  <path id="_5_LS.svg" data-name="5_LS.svg" class="cls-1" d="M467,656.022c-7.168,0-13-5.064-13-11.288v-2.716h2.763l6.114-12.238a15.755,15.755,0,0,1-7.1-3.125,11.851,11.851,0,0,0-5.78-2.508v34.8a25.45,25.45,0,0,0,8,1.078,2,2,0,0,1,0,4c-1.751,0-6.974-.139-10-1.63-3.027,1.491-8.25,1.63-10,1.63a2,2,0,0,1,0-4,25.462,25.462,0,0,0,8-1.078v-34.8a11.85,11.85,0,0,0-5.781,2.508,15.754,15.754,0,0,1-7.1,3.125l6.114,12.238H442v2.716c0,6.224-5.832,11.288-13,11.288s-13-5.064-13-11.288v-2.716h2.764l6.617-13.243c-1.717-.863-3.1-2.086-3.346-3.389a2,2,0,0,1,3.853-1.034,7.258,7.258,0,0,0,4.266,1.662,11.615,11.615,0,0,0,7.78-2.642A15.454,15.454,0,0,1,446,620.113v-2.1a2,2,0,1,1,4,0v2.1a15.454,15.454,0,0,1,8.066,3.259,11.615,11.615,0,0,0,7.78,2.642,7.261,7.261,0,0,0,4.266-1.662,2,2,0,0,1,3.853,1.034c-0.247,1.3-1.629,2.526-3.346,3.389l6.616,13.243H480v2.716C480,650.958,474.168,656.022,467,656.022Zm-38-4c4.421,0,8.108-2.594,8.86-6H420.141C420.893,649.427,424.58,652.021,429,652.021Zm0-21.542-5.765,11.539h11.529Zm38,0-5.765,11.538h11.53Zm-8.86,15.54c0.753,3.407,4.439,6,8.86,6s8.107-2.594,8.86-6H458.14Zm-55.969-4.213a2,2,0,1,1-2.929,2.725c-4.806-5.17-7.242-10.054-7.242-14.517V600.007a2,2,0,0,1,2-2c7.177,0,25.1-7.929,28.611-11.421a2,2,0,0,1,2.821,0c3.51,3.492,21.435,11.421,28.612,11.421a2,2,0,0,1,0,4c-7.272,0-23.808-6.76-30.022-11.394-5.7,4.248-20.066,10.282-28.022,11.259v28.143C396,633.434,398.076,637.4,402.171,641.807Zm59.83-21.8a2,2,0,0,1-2-2V595.9c-5.106-.489-12.5-2.691-20.358-6.1-5.657-2.453-12.223-5.879-15.626-8.9-4.245,3.725-13.052,7.654-15.978,8.9-7.91,3.378-15.179,5.571-20.039,6.081v36.125c0,8.449,9.313,17.53,17.127,23.66a122.334,122.334,0,0,0,18.848,12.149c0.557-.28,1.533-0.8,3.033-1.68a2,2,0,0,1,2.018,3.455,27.645,27.645,0,0,1-4.509,2.332,1.992,1.992,0,0,1-1.032,0c-1.513-.4-11.194-5.606-20.5-12.856-12.594-9.807-18.98-18.911-18.98-27.06V594.005a2,2,0,0,1,2-2c4.14,0,11.984-2.251,20.469-5.874,9.217-3.937,14.713-7.571,15.918-9.282a2,2,0,0,1,3.27,0c1.235,1.754,6.637,5.409,15.577,9.286,8.348,3.62,16.305,5.87,20.767,5.87a2,2,0,0,1,2,2v24A2,2,0,0,1,462,620.006Z" transform="translate(-384 -576)"/>
</svg>


