<svg xmlns="http://www.w3.org/2000/svg" width="96" height="96" viewBox="0 0 96 96">
  <defs>
    <style>
      .cls-1 {
        fill: #1b1b1b;
        fill-rule: evenodd;
      }
    </style>
  </defs>
  <path id="_3_LS.svg" data-name="3_LS.svg" class="cls-1" d="M286.444,665.017a6.945,6.945,0,0,1-5.224,2.873v2.067a2.051,2.051,0,0,1-4.1,0v-2.042H272.6a9.1,9.1,0,0,1-4.7-1.174c-0.783-.41-2.208-1.174-3.162-1.687l-4.908,2.575a1.723,1.723,0,0,1-.2.094,8.986,8.986,0,0,1-3.289.656,7.652,7.652,0,0,1-1.774-.211v1.789a2.051,2.051,0,0,1-4.1,0v-4.116c-0.15-.141-0.3-0.278-0.448-0.431l-3.162-3.3c-0.631-.658-1.625-2.049-2.971-6.515-0.69-2.288-2-7.581-2.5-10.114a8.262,8.262,0,0,1,1.734-6.981,9.084,9.084,0,0,1,6.928-3.267h20.507c6.152,0,10.665,1.512,12.682,8.878l4.4,13.7A8.172,8.172,0,0,1,286.444,665.017Zm-2.72-5.962-4.409-13.744c-0.01-.029-0.019-0.059-0.027-0.088-1.244-4.581-3.2-5.9-8.735-5.9H250.046a5,5,0,0,0-3.761,1.777,4.2,4.2,0,0,0-.877,3.6c0.472,2.391,1.749,7.572,2.4,9.726,1.185,3.931,1.929,4.785,2.01,4.87l3.162,3.3c1.585,1.654,3.145,2.079,5.046,1.37l5.733-3.008c0.022-.013.045-0.024,0.067-0.036l3.892-2.042c2.372-1.237,2.836-1.618,2.836-3.214h-12.3a2.049,2.049,0,0,1-1.949-1.406l-1.346-4.085a2.05,2.05,0,0,1,3.9-1.274l0.883,2.679h11.6l1.108-2.207a2.049,2.049,0,0,1,3.668,1.827l-1.458,2.9v1.561c0,4.207-2.672,5.6-5.03,6.831l-0.511.268c0.263,0.14.5,0.266,0.7,0.368a5.051,5.051,0,0,0,2.793.7h8.2a2.823,2.823,0,0,0,2.326-1.221A4.086,4.086,0,0,0,283.724,659.055Zm-28.1-41.473c0.037-.02.075-0.039,0.113-0.058a32.052,32.052,0,0,0,9.491-8.031,2.057,2.057,0,0,1,1.592-.814,2.035,2.035,0,0,1,1.627.74c0.187,0.224,4.572,5.574,4.572,11.515V621.6a11.317,11.317,0,0,1-11.279,11.592l-5.128,0a2.047,2.047,0,0,1-2.049-2.043v-8.689q-0.764.26-1.553,0.457a2.043,2.043,0,1,1-1-3.963A17.233,17.233,0,0,0,255.622,617.582Zm3.041,11.524,3.077,0a7.27,7.27,0,0,0,7.176-7.507v-0.668a14.406,14.406,0,0,0-2.225-6.861,35.255,35.255,0,0,1-8.028,6.514v8.519Zm16.4-12.258a2.046,2.046,0,0,1-2.051-2.042,12.3,12.3,0,0,0-24.608,0v16.341a2.051,2.051,0,0,1-4.1,0V614.806a16.405,16.405,0,0,1,32.81,0A2.046,2.046,0,0,1,275.068,616.848Zm-37.042-5.411a2.05,2.05,0,0,1-3.84-1.434l5.112-13.581h-5.243a2.044,2.044,0,0,1-1.92-2.76l6.152-16.341a2.05,2.05,0,0,1,3.84,1.434l-5.113,13.581h5.244a2.053,2.053,0,0,1,1.685.88,2.032,2.032,0,0,1,.234,1.88Zm-1.145,22.977a8.258,8.258,0,0,1,1.735,6.981c-0.5,2.533-1.805,7.826-2.5,10.114-1.347,4.467-2.341,5.858-2.971,6.515l-3.162,3.3c-0.011.012-.023,0.022-0.034,0.033v8.6a2.051,2.051,0,0,1-4.1,0v-5.992a7.634,7.634,0,0,1-2.187.329,9.007,9.007,0,0,1-3.289-.656,2.246,2.246,0,0,1-.206-0.094l-4.907-2.575c-0.954.513-2.379,1.276-3.162,1.687a9.113,9.113,0,0,1-4.7,1.173h-4.1v6.128a2.051,2.051,0,0,1-4.1,0v-6.128a6.944,6.944,0,0,1-5.638-2.9,8.172,8.172,0,0,1-1.187-7.206l4.4-13.7c2.017-7.366,6.53-8.878,12.682-8.878h20.507A9.077,9.077,0,0,1,236.881,634.414Zm-3.167,2.6a5,5,0,0,0-3.76-1.778H209.447c-5.532,0-7.492,1.325-8.736,5.906-0.008.029-.016,0.059-0.026,0.088l-4.409,13.744a4.084,4.084,0,0,0,.592,3.552,2.821,2.821,0,0,0,2.326,1.222h8.2a5.054,5.054,0,0,0,2.793-.7c0.195-.1.434-0.228,0.7-0.368l-0.516-.271c-2.353-1.227-5.025-2.621-5.025-6.829v-1.56l-1.458-2.905a2.049,2.049,0,0,1,3.668-1.827l1.108,2.207h11.6l0.882-2.679a2.05,2.05,0,0,1,3.9,1.273l-1.345,4.086a2.052,2.052,0,0,1-1.949,1.4h-12.3c0,1.6.464,1.978,2.831,3.213l3.9,2.043,0.071,0.037,5.731,3.007c1.9,0.71,3.461.285,5.046-1.369l3.162-3.3c0.081-.084.824-0.937,2.01-4.87,0.649-2.153,1.927-7.334,2.4-9.725A4.192,4.192,0,0,0,233.714,637.01ZM218.675,629.1A11.316,11.316,0,0,1,207.4,617.512V612.1a11.283,11.283,0,1,1,22.557,0v5.413A11.316,11.316,0,0,1,218.675,629.1Zm7.177-17a7.184,7.184,0,1,0-14.354,0v5.413a7.184,7.184,0,1,0,14.354,0V612.1Z" transform="translate(-192 -576)"/>
</svg>


