<svg xmlns="http://www.w3.org/2000/svg" width="96" height="79.969" viewBox="0 0 96 79.969">
  <defs>
    <style>
      .cls-1 {
        fill: #1b1b1b;
        fill-rule: evenodd;
      }
    </style>
  </defs>
  <path id="_7_LS.svg" data-name="7_LS.svg" class="cls-1" d="M670.919,633.24a8,8,0,0,1-6.952,4.044,7.9,7.9,0,0,1-3.993-1.082c-2.206-1.287-7.22-4.615-13.025-8.47-8.06-5.351-18.09-12.011-24.136-15.537l-0.415.726-2.736.741-0.172.3,0.733,2.764-3.419,5.982a4,4,0,0,1-3.477,2.022,3.952,3.952,0,0,1-2-.541l-15.612-9.1a4.011,4.011,0,0,1-1.866-2.457,4.056,4.056,0,0,1,.4-3.071l3.419-5.981,2.736-.741,0.172-.3-0.733-2.764,6.839-11.964,2.736-.74,0.172-.3L608.861,584l3.419-5.982a3.989,3.989,0,0,1,5.472-1.481l15.613,9.1a4.07,4.07,0,0,1,1.466,5.528l-3.419,5.981-2.737.741-0.172.3,0.734,2.763-0.415.726h0c6.046,3.526,16.772,8.97,25.389,13.344,6.208,3.151,11.569,5.872,13.775,7.158a8.028,8.028,0,0,1,3.733,4.914A8.11,8.11,0,0,1,670.919,633.24Zm-42.147-39.562,2.59-4.531-15.613-9.1-2.589,4.531,0.733,2.764-1.831,3.2-2.736.741-5.18,9.061,0.733,2.763-1.831,3.2-2.736.74-2.59,4.531,15.612,9.1,2.59-4.531-0.733-2.763,0.415-.726-8.674-5.058,2-3.5,9.69,5.65,1.133-.306,5.18-9.061-0.3-1.145-9.69-5.65,2-3.5,8.674,5.058,0.415-.726Zm39.078,34.468a4.016,4.016,0,0,0-1.867-2.457c-2.1-1.227-7.418-3.924-13.571-7.047-8.664-4.4-19.446-9.87-25.593-13.455h0l-2,3.5c6.147,3.585,16.231,10.28,24.333,15.66,5.754,3.82,10.723,7.119,12.828,8.347a3.989,3.989,0,0,0,5.472-1.481A4.057,4.057,0,0,0,667.85,628.146Zm-84.424-3.086a1.988,1.988,0,0,1-2.833,0,2.038,2.038,0,0,1,0-2.861l6.009-6.069a1.989,1.989,0,0,1,2.833,0,2.038,2.038,0,0,1,0,2.861Zm4.592-17.615a1.987,1.987,0,0,1-1.416-.593l-6.009-6.069a2.038,2.038,0,0,1,0-2.861,1.989,1.989,0,0,1,2.833,0l6.009,6.069a2.038,2.038,0,0,1,0,2.861A1.988,1.988,0,0,1,588.018,607.445Zm0,4.046a2.012,2.012,0,0,1-2,2.023H578a2.023,2.023,0,0,1,0-4.046h8.012A2.013,2.013,0,0,1,588.018,611.491Zm-6.009,28.59v-4.312a4.031,4.031,0,0,1,4.006-4.047h32.049a4.031,4.031,0,0,1,4.006,4.047v4.312a8.085,8.085,0,0,1,6.009,7.826V656H576v-8.093A8.085,8.085,0,0,1,582.009,640.081Zm-2,11.873h44.067v-4.047a4.031,4.031,0,0,0-4.006-4.046h-20.03v-4.046h18.027v-4.046H586.015v4.046h6.009v4.046h-8.012a4.031,4.031,0,0,0-4.006,4.046v4.047Z" transform="translate(-576 -576.031)"/>
</svg>


