<svg xmlns="http://www.w3.org/2000/svg" width="96" height="78" viewBox="0 0 96 78">
  <defs>
    <style>
      .cls-1 {
        fill: #1b1b1b;
        fill-rule: evenodd;
      }
    </style>
  </defs>
  <path id="_12_LS.svg" data-name="12_LS.svg" class="cls-1" d="M1147,622v32h-88V622h-4V608h6v-2c0-4.254,4.83-7.059,9.31-8.588A9.956,9.956,0,0,1,1067,590v-4.286a10,10,0,0,1,20,0V590a9.956,9.956,0,0,1-3.31,7.412c4.48,1.529,9.31,4.334,9.31,8.588v2h20v-2c0-1.207-1.75-2.744-4.57-4.013A22.506,22.506,0,0,0,1101,600a10.014,10.014,0,0,1-10-10v-4.286a10,10,0,0,1,20,0V590a9.956,9.956,0,0,1-3.31,7.412c4.48,1.529,9.31,4.334,9.31,8.588v2h20v-2c0-1.207-1.75-2.744-4.57-4.013A22.506,22.506,0,0,0,1125,600a10.014,10.014,0,0,1-10-10v-4.286a10,10,0,0,1,20,0V590a9.956,9.956,0,0,1-3.31,7.412c4.48,1.529,9.31,4.334,9.31,8.588v2h10v14h-4Zm-40-36.286a6.007,6.007,0,0,0-12,0V590a6,6,0,0,0,12,0v-4.286ZM1131,590v-4.286a6.007,6.007,0,0,0-12,0V590A6,6,0,0,0,1131,590Zm-48-4.286a6.007,6.007,0,0,0-12,0V590a6,6,0,0,0,12,0v-4.286ZM1089,606c0-1.207-1.75-2.744-4.57-4.013a14.885,14.885,0,0,0-14.86,0c-2.82,1.269-4.57,2.806-4.57,4.013v2h24v-2Zm58,6h-88v6h58v4h-54v28h80V622h-14v-4h18v-6Zm-8,34h-20V626h20v20Zm-4-16h-12v12h12V630Zm-42-4h20v20h-20V626Zm4,16h12V630h-12v12Zm-30-16h20v20h-20V626Zm4,16h12V630h-12v12Z" transform="translate(-1055 -576)"/>
</svg>

