<svg xmlns="http://www.w3.org/2000/svg" width="96" height="92" viewBox="0 0 96 92">
  <defs>
    <style>
      .cls-1 {
        fill: #1b1b1b;
        fill-rule: evenodd;
      }
    </style>
  </defs>
  <path id="_1_LS.svg" data-name="1_LS.svg" class="cls-1" d="M96,628v4H93.825c-1.093,6.916-7.763,12.259-15.825,12.259S63.268,638.916,62.175,632H60v-4h2.685L73.5,602.746l-2.068-.441c-0.876-.185-1.833-0.427-2.86-0.689A40.267,40.267,0,0,0,58.5,600a5.911,5.911,0,0,0-4.125,1.617,9.711,9.711,0,0,1-12.751,0A5.909,5.909,0,0,0,37.5,600a40.268,40.268,0,0,0-10.078,1.619c-1.026.262-1.982,0.5-2.858,0.689l-2.382.508-1.39.3L33.232,628H36v4H33.825c-1.093,6.916-7.763,12.259-15.825,12.259S3.268,638.916,2.175,632H0v-4H2.685l10.3-24.041C8.17,603.582,6,600.154,6,596.75,6,593.4,8.748,590,14,590a28.28,28.28,0,0,1,2.888.189c2.845,0.29,5.792.59,11.954-2.032,8.27-3.521,13.081-4.793,19.158-.638,6.077-4.155,10.889-2.88,19.158.637,6.161,2.623,9.106,2.323,11.954,2.033A28.28,28.28,0,0,1,82,590c5.252,0,8,3.4,8,6.75,0,3.607-2.435,7.247-7.875,7.247-0.311,0-.608-0.007-0.9-0.016L93.232,628H96ZM78,640.259c5.817,0,10.655-3.56,11.743-8.259H66.255C67.344,636.7,72.183,640.259,78,640.259Zm-60,0c5.817,0,10.655-3.56,11.744-8.259H6.255C7.344,636.7,12.183,640.259,18,640.259ZM7.037,628H28.759l-11.7-23.4Zm75.088-28c3.2,0,3.875-1.766,3.875-3.247,0-1.369-1.237-2.75-4-2.75a24.5,24.5,0,0,0-2.483.169c-3.194.324-6.816,0.694-13.925-2.332-8.507-3.62-11.5-4.059-16.361-.263l-1.23.96-1.23-.96c-4.864-3.8-7.857-3.356-16.361.264-7.106,3.024-10.726,2.659-13.925,2.331A24.5,24.5,0,0,0,14,594c-2.763,0-4,1.381-4,2.75,0,1.481.672,3.247,3.875,3.247A31.721,31.721,0,0,0,21.34,598.9l2.4-.512c0.826-.174,1.729-0.4,2.7-0.651A44.14,44.14,0,0,1,37.5,596a9.789,9.789,0,0,1,6.537,2.427,5.769,5.769,0,0,0,7.925,0A9.793,9.793,0,0,1,58.5,596a44.137,44.137,0,0,1,11.062,1.742c0.97,0.247,1.872.478,2.7,0.652l2.4,0.511A31.715,31.715,0,0,0,82.125,600Zm-5.062,4.6L67.037,628H88.759ZM48,580a2,2,0,0,0-2,2H42a6,6,0,0,1,12,0H50A2,2,0,0,0,48,580Zm-2,64a2,2,0,0,1-4,0,9.444,9.444,0,0,0-.775-3.562A16.962,16.962,0,0,1,40,634a48.038,48.038,0,0,1,.658-6.942A121.5,121.5,0,0,0,42,608a2,2,0,0,1,4,0,125.079,125.079,0,0,1-1.382,19.618A45.275,45.275,0,0,0,44,634a12.98,12.98,0,0,0,.985,5.071A13.137,13.137,0,0,1,46,644Zm4-36a2,2,0,0,1,4,0,121.5,121.5,0,0,0,1.343,19.058A48.038,48.038,0,0,1,56,634a16.962,16.962,0,0,1-1.227,6.438A9.444,9.444,0,0,0,54,644a2,2,0,0,1-4,0,13.137,13.137,0,0,1,1.017-4.929A12.98,12.98,0,0,0,52,634a45.275,45.275,0,0,0-.619-6.382A125.079,125.079,0,0,1,50,608ZM30,656v-4a4,4,0,0,1,4-4H50v4H34v4H50v4H30v4H66v-4H54v-4h8v-4H54v-4h8a4,4,0,0,1,4,4v4a4,4,0,0,1,4,4v8H26v-8A4,4,0,0,1,30,656Z" transform="translate(0 -576)"/>
</svg>


