<svg xmlns="http://www.w3.org/2000/svg" width="96" height="94" viewBox="0 0 96 94">
  <defs>
    <style>
      .cls-1 {
        fill: #1b1b1b;
        fill-rule: evenodd;
      }
    </style>
  </defs>
  <path id="_9_LS.svg" data-name="9_LS.svg" class="cls-1" d="M851,664c-7.168,0-13-5.063-13-11.286V650h2.764l6.107-12.223a15.687,15.687,0,0,1-7.091-3.136A11.763,11.763,0,0,0,834,632.12v32.809A25.676,25.676,0,0,0,842,666a2,2,0,0,1,0,4c-1.749,0-6.974-.133-10-1.62-3.027,1.486-8.25,1.62-10,1.62a2,2,0,0,1,0-4,25.674,25.674,0,0,0,8-1.071V632.12a11.763,11.763,0,0,0-5.78,2.521,15.687,15.687,0,0,1-7.091,3.136L823.236,650H826v2.714c0,6.223-5.832,11.286-13,11.286s-13-5.063-13-11.286V650h2.764l6.813-13.633a6.43,6.43,0,0,1-1.161-1.145,2,2,0,1,1,3.168-2.444,3.761,3.761,0,0,0,2.57,1.222,11.622,11.622,0,0,0,7.78-2.641A15.43,15.43,0,0,1,830,628.1V626a2,2,0,0,1,4,0v2.1a15.43,15.43,0,0,1,8.066,3.262,11.622,11.622,0,0,0,7.78,2.641,3.761,3.761,0,0,0,2.57-1.222,2,2,0,0,1,3.168,2.444,6.43,6.43,0,0,1-1.161,1.145L861.236,650H864v2.714C864,658.937,858.168,664,851,664Zm-38-4c4.421,0,8.107-2.594,8.86-6H804.14C804.893,657.406,808.579,660,813,660Zm0-21.536L807.235,650h11.53Zm38,0L845.235,650h11.53ZM842.14,654c0.753,3.406,4.439,6,8.86,6s8.107-2.594,8.86-6H842.14Zm-6.415-31.749a2,2,0,0,1-2.382-1.525c-0.574-2.613-1.014-4.754-1.31-6.365C830.956,608.5,828.554,606,824,606h-4l-3.3,0c-0.059,0-.118,0-0.177,0H812a8.495,8.495,0,0,0-3.239.571,2,2,0,0,1-1.524-3.7,11.143,11.143,0,0,1,2.286-.659A9.012,9.012,0,0,1,808,597.147v-4.48a9.634,9.634,0,0,1,3.833-7.506,2,2,0,0,1,2.736.428,22.945,22.945,0,0,0,6.332,5.417c0.032,0.016.064,0.033,0.1,0.051a13.447,13.447,0,0,0,1.7.769A2,2,0,0,1,822,595.7V602h2c6.522,0,10.549,3.916,11.967,11.639,0.288,1.565.719,3.662,1.283,6.23A2,2,0,0,1,835.725,622.251ZM818,593.943a26.618,26.618,0,0,1-5.091-4.185,5.186,5.186,0,0,0-.909,2.909v4.48A4.674,4.674,0,0,0,816.61,602H818v-8.057ZM830,602a1.99,1.99,0,0,1-1.414-.586c-0.066-.066-0.135-0.132-0.205-0.2A6.709,6.709,0,0,1,826,596v-7.733c0-4.558-4.037-8.267-9-8.267-5.069,0-9,3.225-9,6a2,2,0,0,1-4,0c0-5.327,6.075-10,13-10,7.168,0,13,5.5,13,12.267V596a2.815,2.815,0,0,0,1.171,2.347c0.084,0.081.165,0.161,0.243,0.239A2,2,0,0,1,830,602Zm-28.785,3.411a2,2,0,0,1-2.8-.385A7.919,7.919,0,0,0,792,602H780a7.738,7.738,0,0,0-8,8v18a6,6,0,0,0,4,5.65V614a2,2,0,0,1,4,0v52a2,2,0,0,1-4,0V637.8a10.017,10.017,0,0,1-8-9.8V610a11.735,11.735,0,0,1,11.94-12,9.582,9.582,0,0,1-1.94-5.779v-6.444a10,10,0,0,1,20,0v6.444a9.6,9.6,0,0,1-2.362,6.3,11.54,11.54,0,0,1,5.962,4.086A2,2,0,0,1,801.215,605.411ZM794,585.778a6,6,0,0,0-12,0v6.444a6,6,0,0,0,12,0v-6.444Zm0.766,41.426A8.516,8.516,0,0,1,792,621v-4c0-4.963,4.486-9,10-9s10,4.037,10,9v4c0,4.963-4.486,9-10,9h-2a8.009,8.009,0,0,0-8,8v6a13.161,13.161,0,0,0,1.368,4.535A26.851,26.851,0,0,1,796,659.625V666a2,2,0,0,1-4,0v-6.375a23.126,23.126,0,0,0-2.32-9.541A15.966,15.966,0,0,1,788,644v-6A12.013,12.013,0,0,1,794.766,627.2ZM796,621c0,2.757,2.692,5,6,5s6-2.243,6-5v-4c0-2.757-2.692-5-6-5s-6,2.243-6,5v4Z" transform="translate(-768 -576)"/>
</svg>

