<svg xmlns="http://www.w3.org/2000/svg" width="76" height="96" viewBox="0 0 76 96">
  <defs>
    <style>
      .cls-1 {
        fill: #1b1b1b;
        fill-rule: evenodd;
      }
    </style>
  </defs>
  <path id="_4_LS.svg" data-name="4_LS.svg" class="cls-1" d="M354,652v18.828l-8-8-8,8V652h-8c0,5.154-4.195,9.369-6,10.943V664h4v8h-4v-4H292v4h-4v-8h4l0-25.6c0-4.857,1.756-6.82,4.648-9.472l7.352-5.89V576h60v76H354Zm-8,5.172,4,4V643.3a11.779,11.779,0,0,1-8,0v17.872ZM346,640a8,8,0,1,0-8-8A8.008,8.008,0,0,0,346,640Zm-42-11.837-4.75,3.8c-2.572,2.365-3.25,3.326-3.25,6.437l0,25.6h24v-3l0.8-.6c0.049-.037,5.2-3.984,5.2-8.4h-6.627c-1.931,5.9-7.858,8-9.676,8v-4a8.023,8.023,0,0,0,6.3-8v-4.918l0.7-.6c0.02-.017,2.063-1.775,4.108-3.814a5.724,5.724,0,0,0-.184-7.254c-0.6-.535-0.853-0.353-1.207,0-3.658,3.658-16.113,15.529-16.643,16.033l-2.757-2.894c0.046-.044,1.707-1.628,3.986-3.808V628.163ZM360,580H308v56.912c3.392-3.256,6.938-6.678,8.586-8.326a4.664,4.664,0,0,1,6.7-.152c2.984,2.671,3.955,8.591.576,12.816l-0.148.164c-1.457,1.457-2.895,2.762-3.717,3.492V648h18v-7.081a12,12,0,1,1,16,0V648h6V580Zm-42,22h32v4H318v-4Zm0-10h32v4H318v-4Zm20,24H318v-4h20v4Z" transform="translate(-288 -576)"/>
</svg>


