<svg xmlns="http://www.w3.org/2000/svg" width="96" height="70" viewBox="0 0 96 70">
  <defs>
    <style>
      .cls-1 {
        fill: #1b1b1b;
        fill-rule: evenodd;
      }
    </style>
  </defs>
  <path id="_11_LS.svg" data-name="11_LS.svg" class="cls-1" d="M1043,638c-7.17,0-13-5.063-13-11.286V624h2.76l6.12-12.235a15.732,15.732,0,0,1-7.1-3.124,11.846,11.846,0,0,0-5.78-2.507v34.788a25.489,25.489,0,0,0,8,1.078,2,2,0,1,1,0,4c-1.75,0-6.97-.139-10-1.629-3.03,1.49-8.25,1.629-10,1.629a2,2,0,0,1,0-4,25.442,25.442,0,0,0,8-1.078V606.134a11.846,11.846,0,0,0-5.78,2.507,15.732,15.732,0,0,1-7.1,3.124L1015.24,624H1018v2.714c0,6.223-5.83,11.286-13,11.286s-13-5.063-13-11.286V624h2.764l6.616-13.24c-1.716-.862-3.1-2.085-3.345-3.388a2,2,0,0,1,3.855-1.033,7.249,7.249,0,0,0,4.26,1.661,11.606,11.606,0,0,0,7.78-2.641A15.5,15.5,0,0,1,1022,602.1V600a2,2,0,0,1,4,0v2.1a15.465,15.465,0,0,1,8.07,3.258,11.606,11.606,0,0,0,7.78,2.641,7.249,7.249,0,0,0,4.26-1.661,2,2,0,0,1,3.86,1.033c-0.25,1.3-1.63,2.526-3.35,3.388l6.62,13.24H1056v2.714C1056,632.937,1050.17,638,1043,638Zm-38-4c4.42,0,8.11-2.594,8.86-6H996.141C996.893,631.406,1000.58,634,1005,634Zm0-21.536L999.236,624h11.534Zm38,0L1037.24,624h11.52ZM1034.14,628c0.75,3.406,4.44,6,8.86,6s8.11-2.594,8.86-6h-17.72Zm5.86-40h-2v-4h6v18h-4V588Zm-8-8h-18c-7.37,0-10,5.166-10,10v12h-4V590c0-4.834-2.627-10-10-10H972v38h18v4H968V576h22a13.75,13.75,0,0,1,10.52,4.217,12.771,12.771,0,0,1,1.48,2.021,12.23,12.23,0,0,1,1.49-2.021c2.5-2.759,6.14-4.217,10.51-4.217h22v24h-4V580Zm-68,46h24v4H960V584h6v4h-2v38Z" transform="translate(-960 -576)"/>
</svg>

