<svg width="200" height="200" viewBox="0 0 200 200" xmlns="http://www.w3.org/2000/svg" xmlns:xlink="http://www.w3.org/1999/xlink"><title>8</title><defs><path id="a" d="M14.264.654H.823v13.66h13.44V.655z"/><path id="c" d="M13.521.654H.081v13.66h13.44V.655z"/><path id="e" d="M28.115.654H.044v28.07h28.07V.655z"/><path id="g" d="M28.3.654H.23v28.07H28.3V.655z"/><path id="i" d="M8.929 13.947V.644H.092v13.303H8.93z"/></defs><g fill="none" fill-rule="evenodd"><path d="M92.232 52.68c3.583 0 6.487 3.052 6.487 6.817v6.845h-6.832c-3.65 0-6.609-3.11-6.609-6.947V52.68h6.954zM70.725 91.068c0-3.583 3.052-6.487 6.817-6.487h6.844v6.83c0 3.653-3.11 6.612-6.947 6.612h-6.714v-6.955zM109.111 112.576c-3.583 0-6.487-3.053-6.487-6.818v-6.844h6.832c3.65 0 6.61 3.111 6.61 6.947v6.715h-6.955zM130.62 74.19c0 3.581-3.053 6.485-6.818 6.485h-6.844v-6.83c0-3.652 3.11-6.61 6.947-6.61h6.715v6.954zM109.111 52.68c-3.583 0-6.487 3.052-6.487 6.817v6.845h6.832c3.65 0 6.61-3.11 6.61-6.947V52.68h-6.955zM70.725 74.19c0 3.581 3.052 6.485 6.817 6.485h6.844v-6.83c0-3.652-3.11-6.61-6.947-6.61h-6.714v6.954zM92.232 112.576c3.583 0 6.487-3.053 6.487-6.818v-6.844h-6.832c-3.65 0-6.609 3.111-6.609 6.947v6.715h6.954zM130.62 91.068c0-3.583-3.053-6.487-6.818-6.487h-6.844v6.83c0 3.653 3.11 6.612 6.947 6.612h6.715v-6.955z" fill="#38B449"/><path d="M83.972 65.928a.742.742 0 0 0 .024-.189V51.292h7.485a7.239 7.239 0 0 0 7.239-7.239V34h-9.73a7.563 7.563 0 0 0-7.562 7.563v21.821h-21.82a7.564 7.564 0 0 0-7.565 7.563v9.729h10.054a7.24 7.24 0 0 0 7.239-7.24v-7.484h14.448a.74.74 0 0 0 .188-.024M117.372 65.928a.742.742 0 0 0 .19.024h14.446v7.484a7.24 7.24 0 0 0 7.24 7.24H149.3v-9.729a7.564 7.564 0 0 0-7.565-7.563H119.918V41.563A7.564 7.564 0 0 0 112.352 34h-9.729v10.053a7.239 7.239 0 0 0 7.24 7.239h7.484v14.447c0 .065.008.128.024.189M117.372 99.328a.736.736 0 0 0-.024.19v14.446h-7.485a7.239 7.239 0 0 0-7.239 7.24v10.052h9.73a7.564 7.564 0 0 0 7.563-7.563v-21.821h21.819a7.564 7.564 0 0 0 7.565-7.563V84.58h-10.054a7.24 7.24 0 0 0-7.239 7.24v7.484h-14.447a.742.742 0 0 0-.189.024M83.972 99.328a.74.74 0 0 0-.188-.024H69.336V91.82a7.24 7.24 0 0 0-7.24-7.24H52.044v9.73a7.564 7.564 0 0 0 7.565 7.562h21.82v21.821a7.563 7.563 0 0 0 7.563 7.563h9.729v-10.053a7.239 7.239 0 0 0-7.24-7.239h-7.484V99.517a.736.736 0 0 0-.024-.189" fill="#006737"/><g transform="translate(62 33.346)"><mask id="b" fill="#fff"><use xlink:href="#a"/></mask><path d="M7.31 14.315c-3.583 0-6.487-3.052-6.487-6.817V.654h6.832c3.65 0 6.609 3.11 6.609 6.947v6.714H7.31z" fill="#8CC63E" mask="url(#b)"/></g><path d="M65.705 113.991c0 3.582-3.053 6.486-6.818 6.486h-6.844v-6.831c0-3.651 3.11-6.61 6.947-6.61h6.715v6.955zM132.034 117.595c3.583 0 6.487 3.052 6.487 6.818v6.844h-6.832c-3.65 0-6.609-3.111-6.609-6.948v-6.714h6.954zM135.639 51.265c0-3.583 3.053-6.487 6.817-6.487h6.845v6.832c0 3.651-3.11 6.61-6.947 6.61h-6.715v-6.955z" fill="#8CC63E"/><g transform="translate(125 33.346)"><mask id="d" fill="#fff"><use xlink:href="#c"/></mask><path d="M7.034 14.315c3.583 0 6.487-3.052 6.487-6.817V.654H6.69C3.04.654.08 3.764.08 7.6v6.714h6.954z" fill="#8CC63E" mask="url(#d)"/></g><path d="M65.705 51.265c0-3.583-3.053-6.487-6.818-6.487h-6.844v6.832c0 3.651 3.11 6.61 6.947 6.61h6.715v-6.955zM69.31 117.595c-3.582 0-6.487 3.052-6.487 6.818v6.844h6.832c3.65 0 6.609-3.111 6.609-6.948v-6.714H69.31zM135.639 113.99c0 3.584 3.053 6.488 6.817 6.488h6.845v-6.832c0-3.651-3.11-6.61-6.947-6.61h-6.715v6.954z" fill="#8CC63E"/><g transform="translate(52 33.346)"><mask id="f" fill="#fff"><use xlink:href="#e"/></mask><path d="M27.632 28.242a7.556 7.556 0 0 0 .483-2.666V1.4a.746.746 0 0 0-.746-.746h-1.077a.746.746 0 0 0-.746.746v14.447h-7.484c-.846 0-1.66.145-2.413.412a7.223 7.223 0 0 0-.413 2.413v7.485H.789a.745.745 0 0 0-.745.746v1.076c0 .412.333.746.745.746H24.965c.939 0 1.838-.171 2.667-.483" fill="#009344" mask="url(#f)"/></g><g transform="translate(121 33.346)"><mask id="h" fill="#fff"><use xlink:href="#g"/></mask><path d="M.712 28.242a7.561 7.561 0 0 0 2.667.483h24.175a.747.747 0 0 0 .747-.746v-1.076a.747.747 0 0 0-.747-.746H13.108v-7.485c0-.846-.146-1.658-.413-2.413a7.218 7.218 0 0 0-2.413-.412H2.798V1.4a.746.746 0 0 0-.746-.746H.976a.747.747 0 0 0-.747.746v24.176c0 .938.17 1.837.483 2.666" fill="#009344" mask="url(#h)"/></g><path d="M121.712 103.669a7.556 7.556 0 0 0-.483 2.666v24.176c0 .412.335.746.747.746h1.076a.746.746 0 0 0 .746-.746v-14.447h7.484c.846 0 1.659-.145 2.413-.412a7.225 7.225 0 0 0 .413-2.414v-7.484h14.446a.747.747 0 0 0 .747-.746v-1.076a.747.747 0 0 0-.747-.746h-24.175c-.938 0-1.838.17-2.667.483M79.63 103.669a7.547 7.547 0 0 0-2.665-.483H52.789a.745.745 0 0 0-.745.746v1.076c0 .412.333.746.745.746h14.447v7.484c0 .847.146 1.659.413 2.414a7.218 7.218 0 0 0 2.413.412h7.484v14.447c0 .412.334.746.746.746h1.077a.746.746 0 0 0 .746-.746v-24.176c0-.938-.171-1.837-.484-2.666" fill="#009344"/><path d="M101.02 69.925a7.567 7.567 0 0 0-5.534 7.25 7.565 7.565 0 0 0-7.25 5.535 7.566 7.566 0 0 0 7.25 5.535 7.565 7.565 0 0 0 5.534 7.25 7.565 7.565 0 0 0 5.537-7.25 7.566 7.566 0 0 0 7.248-5.535 7.565 7.565 0 0 0-7.249-5.535 7.568 7.568 0 0 0-5.535-7.25" fill="#006737"/><path d="M94.174 89.558h-5.467a.745.745 0 0 0-.746.746v1.076c0 .412.334.746.746.746h2.898v2.897c0 .412.334.746.746.746h1.076a.747.747 0 0 0 .747-.746v-5.465zm13.694 0v5.465c0 .412.334.746.747.746h1.077a.746.746 0 0 0 .746-.746v-2.897h2.896a.746.746 0 0 0 .746-.746v-1.076a.745.745 0 0 0-.746-.746h-5.466zm0-13.696h5.466a.746.746 0 0 0 .746-.746v-1.077a.747.747 0 0 0-.746-.746h-2.896v-2.897a.746.746 0 0 0-.746-.746h-1.077a.746.746 0 0 0-.747.746v5.466zm-13.694 0v-5.466a.747.747 0 0 0-.747-.746H92.35a.746.746 0 0 0-.746.746v2.897h-2.898a.747.747 0 0 0-.746.746v1.077c0 .412.334.746.746.746h5.467z" fill="#009344"/><path d="M34.99 156.213c-.32.021-.645.048-.974.08l-.016-.175c.128-.064.258-.168.391-.312.133-.143.255-.313.367-.51.112-.197.202-.393.271-.59.07-.197.104-.375.104-.535a82.04 82.04 0 0 0 .032-2.025v-2.265c0-.819-.01-1.653-.032-2.504a88.595 88.595 0 0 0-.096-2.473 3.077 3.077 0 0 0-.215-1.012c-.123-.293-.359-.556-.71-.79v-.112c.701.064 1.271.097 1.706.097.256 0 .622-.022 1.101-.065.256-.01.452-.02.591-.032v.112a1.291 1.291 0 0 0-.639.726 4.071 4.071 0 0 0-.239 1.14c-.01.224-.02.453-.032.686-.01.234-.016.564-.016.99-.01.5-.016 1.562-.016 3.19 0 .754.011 1.438.032 2.05.021.61.053 1.368.096 2.272.011.287.082.53.215.725.133.197.304.35.511.455.207.106.441.183.702.231.26.048.54.072.837.072.424 0 .875-.06 1.347-.183.474-.122.86-.306 1.157-.55.18-.15.337-.312.47-.487.133-.176.274-.386.423-.63.17-.298.292-.447.367-.447.042 0 .072.021.088.064a.4.4 0 0 1 .024.143c0 .107-.03.24-.088.4-.059.16-.147.361-.263.605-.202.47-.33.798-.383.99-.043.18-.117.332-.223.454a.575.575 0 0 1-.415.2c-.042 0-.25.01-.622.031-.66.043-1.138.064-1.436.064-.36 0-.689-.005-.98-.016a38.085 38.085 0 0 1-.965-.048 33.872 33.872 0 0 0-1.612-.048c-.255 0-.542.011-.86.032M51.912 150.264l-1.69-4.498h-.048l-1.834 4.498v.08c.574.032 1.164.047 1.77.047a33 33 0 0 0 1.802-.047v-.08zm3.397 4.307c.32.808.798 1.339 1.436 1.595v.111a10.816 10.816 0 0 0-1.754-.143c-.628 0-1.255.047-1.883.143v-.096c0-.084.075-.228.224-.43.191-.266.287-.468.287-.606 0-.096-.014-.202-.04-.319a2.251 2.251 0 0 0-.088-.303l-1.244-3.414a23.894 23.894 0 0 0-2.105-.111c-.797 0-1.537.037-2.217.111l-1.419 3.701c-.128.329-.192.579-.192.749 0 .224.096.431.287.622v.096a8.668 8.668 0 0 0-1.292-.096c-.479 0-.952.032-1.419.096l.08-.096c.807-.255 1.392-.818 1.754-1.69l3.86-9.331a.886.886 0 0 0 .048-.271c0-.309-.115-.625-.343-.949a3.308 3.308 0 0 0-.869-.838l-.032-.111a24.666 24.666 0 0 0 1.914.079h.43l.734 1.867 3.843 9.634zM55.645 147.967c-.319-.723-.73-1.643-1.229-2.759a2.727 2.727 0 0 0-.126-.287l-.048-.128a4.984 4.984 0 0 0-.527-.94c-.18-.246-.479-.474-.894-.687l-.03-.128c.127.011.223.022.287.032.658.054 1.136.08 1.434.08.384 0 .947-.02 1.692-.063l.064.127c-.245.16-.367.436-.367.83 0 .33.058.66.175.988.256.691.524 1.391.805 2.098.282.707.604 1.518.965 2.432l.144.335c.297.734.75 1.797 1.355 3.19.139.31.239.542.303.702h.16c.213-.53.559-1.382 1.037-2.552l.335-.846c.202-.51.417-1.073.647-1.69.227-.617.506-1.388.837-2.313l.445-1.276c.064-.17.12-.345.168-.526.048-.18.071-.356.071-.527a.934.934 0 0 0-.174-.582c-.117-.154-.32-.263-.606-.327l.048-.112c.659.064 1.212.096 1.659.096.254 0 .631-.02 1.131-.064.266-.01.468-.02.607-.032l-.048.112a2.29 2.29 0 0 0-.933.718 6.208 6.208 0 0 0-.71 1.148 36.997 36.997 0 0 0-.741 1.683c-.24.58-.53 1.3-.87 2.161l-.415 1.021c-.17.415-.441 1.058-.813 1.93-.34.798-.651 1.531-.933 2.201-.282.67-.593 1.441-.933 2.313-.053.117-.118.175-.192.175-.085 0-.16-.079-.222-.239a122.544 122.544 0 0 0-1.564-3.652c-.234-.52-.444-.997-.63-1.428-.186-.43-.36-.832-.518-1.204a58.426 58.426 0 0 0-.846-2.01M70.59 150.264l-1.69-4.498h-.048l-1.834 4.498v.08c.574.032 1.164.047 1.769.047.617 0 1.218-.015 1.803-.047v-.08zm3.397 4.307c.32.808.798 1.339 1.436 1.595v.111a10.816 10.816 0 0 0-1.754-.143c-.628 0-1.255.047-1.883.143v-.096c0-.084.075-.228.224-.43.19-.266.287-.468.287-.606 0-.096-.014-.202-.04-.319a2.251 2.251 0 0 0-.088-.303l-1.244-3.414a23.895 23.895 0 0 0-2.106-.111c-.796 0-1.536.037-2.216.111l-1.42 3.701c-.127.329-.192.579-.192.749 0 .224.096.431.287.622v.096a8.648 8.648 0 0 0-1.292-.096c-.478 0-.951.032-1.418.096l.079-.096c.808-.255 1.393-.818 1.755-1.69l3.86-9.331a.883.883 0 0 0 .047-.271c0-.309-.114-.625-.343-.949a3.288 3.288 0 0 0-.868-.838l-.032-.111a24.62 24.62 0 0 0 1.913.079h.43l.735 1.867 3.843 9.634zM80.654 143.836c-.605.042-1.016.133-1.229.271a5.701 5.701 0 0 0-.046.622c-.012.096-.017.17-.017.223-.01.224-.02.452-.032.686-.01.234-.016.564-.016.99-.01.5-.015 1.562-.015 3.19 0 1.488.042 3.083.126 4.784 0 .075.011.165.033.272.298.233.723.393 1.276.478.553.085 1.286.128 2.201.128.712 0 1.385-.152 2.018-.455a5.26 5.26 0 0 0 1.667-1.26 5.999 5.999 0 0 0 1.124-1.874 6.321 6.321 0 0 0 .407-2.265 7.65 7.65 0 0 0-.407-2.464c-.27-.804-.646-1.465-1.124-1.986a3.934 3.934 0 0 0-1.619-1.069 6.178 6.178 0 0 0-2.066-.335c-.915 0-1.675.022-2.28.064m4.936-.423a6.664 6.664 0 0 1 2.193 1.22 5.69 5.69 0 0 1 1.475 1.922c.356.75.535 1.572.535 2.465 0 1.042-.18 2.007-.542 2.895a6.731 6.731 0 0 1-1.564 2.32 7.097 7.097 0 0 1-2.44 1.532c-.947.361-1.989.547-3.126.558-.362 0-.947-.027-1.755-.08a30.926 30.926 0 0 0-1.786-.079c-.287 0-.617.007-.99.023-.372.016-.68.035-.924.056v-.143c.287-.139.558-.372.813-.702.255-.33.388-.648.4-.957v-.894c.01-1.063.015-2.29.015-3.684a92.37 92.37 0 0 0-.128-4.976c-.032-.596-.463-1.176-1.292-1.739v-.096a36.887 36.887 0 0 0 2.074.096c.382 0 .712-.005.99-.016.275-.01.621-.032 1.036-.064l1.172-.056c.345-.015.741-.024 1.188-.024.936 0 1.821.141 2.656.423M95.536 144.155a4.694 4.694 0 0 0-1.603 1.132c-.452.49-.8 1.077-1.044 1.763a6.593 6.593 0 0 0-.368 2.241c0 .82.125 1.608.375 2.368.25.761.601 1.444 1.053 2.05a5.012 5.012 0 0 0 1.603 1.42c.617.34 1.282.51 1.994.51.733 0 1.414-.125 2.042-.375a4.846 4.846 0 0 0 1.65-1.084 4.831 4.831 0 0 0 1.093-1.707c.255-.664.383-1.4.383-2.209 0-1-.13-1.903-.39-2.712-.262-.808-.623-1.496-1.086-2.065a4.587 4.587 0 0 0-1.642-1.292 4.837 4.837 0 0 0-2.05-.439 5.02 5.02 0 0 0-2.01.4m4.833-.687c.84.34 1.547.82 2.121 1.436a6.286 6.286 0 0 1 1.31 2.145 7.59 7.59 0 0 1 .445 2.624c0 .967-.173 1.87-.519 2.703a6.505 6.505 0 0 1-1.435 2.161 6.387 6.387 0 0 1-2.145 1.404 6.891 6.891 0 0 1-2.6.494 6.567 6.567 0 0 1-2.584-.518 6.627 6.627 0 0 1-2.154-1.45 6.79 6.79 0 0 1-1.443-2.163 6.604 6.604 0 0 1-.518-2.599c0-.915.172-1.78.518-2.6a6.877 6.877 0 0 1 1.443-2.169 6.593 6.593 0 0 1 4.738-1.978c1.042 0 1.983.17 2.823.51M118.951 156.261v-.127c.266-.138.483-.33.653-.575.17-.244.261-.526.272-.845.021-1.074.032-2.685.032-4.833v-.143a98.304 98.304 0 0 0-3.748-.064c-1.458 0-2.755.021-3.893.064v.111c0 1.489.042 3.084.128 4.785.021.351.11.657.263.918.154.26.386.459.694.598v.127a23.957 23.957 0 0 0-1.802-.079c-.51 0-1.058.026-1.643.079v-.127c.266-.139.483-.33.653-.575.17-.244.261-.526.272-.845.021-1.074.032-2.685.032-4.833 0-.819-.01-1.653-.032-2.504a88.37 88.37 0 0 0-.096-2.472c-.02-.405-.09-.744-.207-1.021-.117-.276-.356-.537-.718-.782v-.111c.702.063 1.271.095 1.706.095.256 0 .622-.021 1.102-.064.255-.01.451-.021.59-.031v.111a1.291 1.291 0 0 0-.639.726 4.07 4.07 0 0 0-.239 1.141c-.022.414-.037.874-.048 1.379-.01.505-.016 1.358-.016 2.56 1.436.053 2.733.08 3.893.08 1.393 0 2.642-.021 3.748-.064a92.665 92.665 0 0 0-.128-4.035c-.02-.404-.09-.745-.207-1.021-.118-.277-.356-.537-.718-.782v-.112c.701.064 1.27.097 1.706.097.256 0 .622-.022 1.101-.065.256-.01.452-.02.59-.032v.112c-.297.149-.51.391-.638.726a4.036 4.036 0 0 0-.239 1.141c-.01.223-.022.452-.03.685a20.9 20.9 0 0 0-.018.989c-.01.5-.016 1.563-.016 3.19 0 1.489.042 3.084.128 4.785.021.351.11.657.263.917.154.261.386.461.693.599v.127a24.01 24.01 0 0 0-1.8-.08c-.512 0-1.06.027-1.644.08M127.054 144.155a4.694 4.694 0 0 0-1.603 1.132c-.453.49-.8 1.077-1.044 1.763a6.593 6.593 0 0 0-.368 2.241c0 .82.125 1.608.375 2.368.25.761.6 1.444 1.053 2.05a5.002 5.002 0 0 0 1.603 1.42c.617.34 1.28.51 1.994.51.733 0 1.414-.125 2.042-.375a4.846 4.846 0 0 0 1.65-1.084 4.831 4.831 0 0 0 1.093-1.707c.255-.664.383-1.4.383-2.209 0-1-.131-1.903-.391-2.712-.262-.808-.622-1.496-1.085-2.065a4.595 4.595 0 0 0-1.642-1.292 4.837 4.837 0 0 0-2.05-.439c-.724 0-1.394.133-2.01.4m4.833-.687c.84.34 1.547.82 2.12 1.436a6.284 6.284 0 0 1 1.309 2.145c.298.813.447 1.688.447 2.624 0 .967-.173 1.87-.52 2.703a6.505 6.505 0 0 1-1.434 2.161 6.381 6.381 0 0 1-2.146 1.404 6.883 6.883 0 0 1-2.6.494 6.563 6.563 0 0 1-2.583-.518 6.616 6.616 0 0 1-2.154-1.45 6.79 6.79 0 0 1-1.443-2.163 6.604 6.604 0 0 1-.518-2.599c0-.915.172-1.78.518-2.6a6.877 6.877 0 0 1 1.443-2.169 6.593 6.593 0 0 1 4.738-1.978c1.042 0 1.982.17 2.823.51M147.238 143.238c-.069.166-.168.37-.295.614-.255.49-.404.84-.446 1.053-.01.064-.038.109-.08.136a.21.21 0 0 1-.112.039c-.043 0-.069-.106-.08-.32a1.811 1.811 0 0 0-.048-.365c-.032-.15-.13-.27-.294-.36a1.195 1.195 0 0 0-.487-.151h-.495c-.744-.01-1.525-.016-2.345-.016l-.079 1.133c-.053.67-.08 1.552-.08 2.648 0 .393.005.78.016 1.164v1.052c0 1.49.043 3.084.128 4.786.021.35.11.656.262.917.155.26.386.46.695.598v.128a23.514 23.514 0 0 0-1.803-.08c-.51 0-1.058.026-1.643.08v-.128c.266-.138.484-.33.655-.574.17-.245.26-.526.271-.846.021-1.073.031-2.684.031-4.833v-2.84c0-.764-.01-1.541-.03-2.328l-.017-.877c-.68 0-1.263.014-1.746.04a8.862 8.862 0 0 0-1.444.2 2.33 2.33 0 0 0-.574.199 2.865 2.865 0 0 0-.575.359 6.383 6.383 0 0 0-.207.175c-.192.18-.329.272-.414.272-.076 0-.113-.033-.113-.096.011-.107.118-.303.32-.591.17-.233.276-.403.318-.51l.128-.24c.181-.382.293-.653.335-.813h.191c.161.182.473.277.942.288.882.01 2.201.016 3.955.016.585 0 1.5-.022 2.744-.064l1.34-.032c.244-.011.526-.08.845-.208l.24-.08h.127a2.008 2.008 0 0 1-.136.455M149.759 156.181c-.282.021-.62.048-1.013.08l-.144.016v-.255c.128-.065.26-.165.399-.303.138-.139.266-.3.383-.487.116-.186.213-.375.287-.566.074-.192.11-.367.11-.527a77.98 77.98 0 0 0 .034-2.025v-2.265a96.877 96.877 0 0 0-.128-4.977 1.958 1.958 0 0 0-.32-.94c-.191-.298-.494-.554-.91-.766l-.031-.176.112.016c.49.043.95.08 1.38.112.43.032.752.048.965.048.17 0 .404-.006.702-.016.297-.01.664-.027 1.1-.048l.447-.032c.776-.053 1.34-.08 1.69-.08.458 0 .833.022 1.125.064.292.043.439.133.439.271 0 .234.026.521.079.861.032.266.049.474.049.622 0 .096-.032.144-.096.144s-.134-.074-.208-.223a2.118 2.118 0 0 0-.111-.224c-.16-.233-.452-.43-.878-.59-.425-.159-1.042-.239-1.85-.239-.213 0-.552.022-1.02.064-.415.032-.73.053-.942.064-.053.17-.09.452-.111.845l-.017.287c-.021.436-.037.915-.047 1.435-.011.522-.016 1.404-.016 2.648.276 0 .644.006 1.1.016.5.022.846.032 1.038.032.095 0 .2-.005.318-.016h.304a3.052 3.052 0 0 0 1.012-.215c.292-.122.556-.359.79-.71h.112a7.53 7.53 0 0 1-.048.447c-.022.17-.038.321-.048.454a5.602 5.602 0 0 0-.016.455v.59c0 .107.01.314.032.622h-.112a1.29 1.29 0 0 0-.725-.638 4.086 4.086 0 0 0-1.141-.239c-.543-.042-1.415-.064-2.616-.064v.048c0 .755.01 1.438.032 2.05.022.611.053 1.37.096 2.272.01.287.108.524.295.71.185.186.417.33.693.431.277.101.569.17.878.207.308.038.622.056.94.056.49 0 .91-.034 1.26-.104.352-.069.676-.22.974-.454.266-.224.579-.559.94-1.005.235-.276.378-.415.43-.415.097 0 .146.048.146.144 0 .095-.03.205-.088.327a9.57 9.57 0 0 1-.28.518c-.254.447-.41.776-.463.99v.031a.914.914 0 0 1-.254.447c-.118.106-.352.16-.703.16h-2.408c-.67 0-1.26-.006-1.77-.017H150.5c-.213 0-.46.011-.741.032" fill="#006737"/><g transform="translate(158 142.346)"><mask id="j" fill="#fff"><use xlink:href="#i"/></mask><path d="M1.081 13.867c-.319.021-.644.048-.973.08l-.016-.175c.128-.064.258-.168.39-.312.133-.143.256-.313.368-.51.112-.197.202-.393.271-.59.07-.197.104-.375.104-.535A82.04 82.04 0 0 0 1.257 9.8V7.535a92.611 92.611 0 0 0-.128-4.977 3.077 3.077 0 0 0-.215-1.012C.791 1.253.555.99.204.756V.644c.701.064 1.271.097 1.707.097.255 0 .622-.022 1.1-.065.256-.01.452-.02.591-.032v.112a1.291 1.291 0 0 0-.639.726 4.071 4.071 0 0 0-.239 1.14c-.01.224-.02.453-.032.686-.01.234-.016.564-.016.99-.01.5-.016 1.562-.016 3.19 0 .754.011 1.438.032 2.05.021.61.053 1.368.096 2.272.011.287.082.53.215.725.133.197.304.35.511.455.207.106.441.183.701.231.262.048.54.072.838.072.424 0 .875-.06 1.347-.183.474-.122.86-.306 1.157-.55.18-.15.337-.312.47-.487.133-.176.274-.386.423-.63.17-.298.292-.447.366-.447.043 0 .073.021.088.064a.38.38 0 0 1 .025.143c0 .107-.03.24-.088.4-.059.16-.147.361-.263.605-.202.47-.33.798-.383.99-.043.18-.117.332-.223.454a.575.575 0 0 1-.415.2c-.042 0-.25.01-.622.031-.66.043-1.138.064-1.436.064-.36 0-.689-.005-.98-.016a38.085 38.085 0 0 1-.965-.048 33.908 33.908 0 0 0-1.612-.048c-.255 0-.542.011-.86.032" fill="#006737" mask="url(#j)"/></g><path d="M50.879 166.092c-.142.01-.285.021-.431.035l-.006-.077a.623.623 0 0 0 .172-.138c.059-.063.114-.139.162-.226.05-.087.089-.174.12-.26a.733.733 0 0 0 .046-.237c.009-.362.014-.66.014-.896v-1.002a46.306 46.306 0 0 0-.056-2.2 1.374 1.374 0 0 0-.095-.449.81.81 0 0 0-.315-.349v-.05c.31.03.563.043.755.043.113 0 .276-.009.488-.028a7.38 7.38 0 0 0 .26-.015v.05a.571.571 0 0 0-.282.321 1.73 1.73 0 0 0-.105.504l-.015.304a82.535 82.535 0 0 0-.014 1.848c0 .334.005.636.014.906.01.271.024.606.043 1.006a.602.602 0 0 0 .095.321.59.59 0 0 0 .226.201c.09.047.195.081.31.102.115.021.239.032.37.032.188 0 .388-.027.597-.08.209-.055.379-.136.51-.245.08-.065.15-.137.209-.214a3.71 3.71 0 0 0 .188-.279c.074-.132.129-.198.162-.198.018 0 .03.01.038.028.007.02.01.04.01.064a.537.537 0 0 1-.038.177c-.026.07-.065.16-.117.267a4.433 4.433 0 0 0-.17.438.453.453 0 0 1-.098.201.255.255 0 0 1-.183.088l-.275.014c-.292.02-.503.028-.635.028a11.388 11.388 0 0 1-.86-.028 15.18 15.18 0 0 0-.713-.02c-.113 0-.24.004-.381.013M56.759 166.141a1.772 1.772 0 0 1-.628-.232 1.336 1.336 0 0 1-.482-.537c-.128-.24-.194-.55-.2-.93 0-.039-.001-.206-.005-.502a23.52 23.52 0 0 1-.015-.607c0-.136.005-.39.015-.762.004-.338.006-.61.006-.818 0-.245-.004-.459-.013-.642a1.368 1.368 0 0 0-.096-.448.804.804 0 0 0-.313-.349v-.049c.31.027.56.042.754.042.113 0 .275-.01.487-.028.113-.005.2-.01.26-.014v.05a.577.577 0 0 0-.282.32 1.835 1.835 0 0 0-.105.504l-.014.304a95.28 95.28 0 0 0-.011 2.285c.002.146.008.341.018.586.009.33.055.598.138.805.082.206.187.362.317.468.129.106.273.177.434.212.16.035.339.053.536.053.272 0 .503-.02.69-.064.19-.042.349-.122.48-.24.133-.117.236-.29.31-.518.076-.228.119-.523.128-.886v-.246c.005-.207.007-.403.007-.586 0-.183.003-.397.008-.642v-.677c0-.339-.005-.633-.015-.882-.01-.212-.042-.37-.098-.48-.056-.108-.176-.214-.36-.317v-.049c.052 0 .127.004.226.014.14.013.244.021.31.021a5.9 5.9 0 0 0 .487-.029c.113-.004.2-.009.26-.014v.05a.62.62 0 0 0-.296.282c-.051.113-.082.294-.091.543-.014.297-.023.613-.025.95-.003.335-.004.736-.004 1.202v.31c-.005.17-.006.273-.006.311 0 .517-.051.932-.152 1.245-.101.313-.243.543-.424.691-.18.15-.388.245-.624.29a4.801 4.801 0 0 1-.882.067 4.37 4.37 0 0 1-.73-.057M65.94 160.243c.123-.004.212-.009.27-.014l-.037.05a2.14 2.14 0 0 0-.57.331 2.413 2.413 0 0 0-.467.466c-.23.302-.454.603-.67.904l-.614.853.27.438c.506.827.944 1.526 1.31 2.095.122.178.242.323.361.438.117.112.257.196.422.252l.036.057c-.32-.024-.593-.036-.819-.036-.122 0-.25.005-.385.012a13.24 13.24 0 0 0-.355.024v-.056c.052-.037.077-.091.077-.162 0-.109-.06-.266-.183-.474a29.094 29.094 0 0 1-.565-1.008c-.249-.457-.437-.79-.564-1.002-.23.344-.45.683-.66 1.017-.21.334-.396.65-.56.952a.885.885 0 0 0-.12.36c0 .15.053.257.162.323v.05l-.12-.006a8.387 8.387 0 0 0-.692-.043c-.14 0-.354.012-.64.036l-.12.013.048-.07c.16-.061.315-.145.465-.255.151-.108.276-.233.374-.374.503-.713.997-1.426 1.482-2.136l.085-.12a6.98 6.98 0 0 0 .077-.113 58.544 58.544 0 0 0-.902-1.376 20.263 20.263 0 0 0-.346-.53c-.02-.028-.035-.054-.05-.078a2.824 2.824 0 0 0-.335-.45 1.57 1.57 0 0 0-.455-.318l-.035-.05c.33.029.59.043.783.043.117 0 .3-.01.543-.028.108-.01.184-.015.226-.015l-.014.05a.183.183 0 0 0-.078.155c0 .07.02.147.056.23a5.715 5.715 0 0 0 .226.433c.1.188.216.397.35.628.133.23.276.473.426.727.203-.302.48-.734.832-1.299l.064-.09c.071-.109.126-.209.166-.3a.65.65 0 0 0 .06-.259.386.386 0 0 0-.085-.239v-.05a6.833 6.833 0 0 0 .762.042c.113 0 .282-.009.508-.028M69.106 166.141a1.777 1.777 0 0 1-.63-.232 1.343 1.343 0 0 1-.481-.537c-.127-.24-.194-.55-.2-.93 0-.039-.001-.206-.005-.502-.01-.306-.014-.508-.014-.607 0-.136.004-.39.014-.762.004-.338.005-.61.005-.818 0-.245-.003-.459-.012-.642a1.368 1.368 0 0 0-.096-.448.804.804 0 0 0-.314-.349v-.049c.31.027.561.042.754.042.114 0 .277-.01.488-.028.112-.005.2-.01.26-.014v.05a.571.571 0 0 0-.282.32 1.798 1.798 0 0 0-.106.504l-.014.304a82.535 82.535 0 0 0-.011 2.285c.003.146.009.341.019.586.01.33.055.598.137.805.082.206.188.362.317.468.13.106.274.177.434.212.16.035.34.053.536.053.273 0 .504-.02.692-.064a1.04 1.04 0 0 0 .48-.24c.131-.117.234-.29.31-.518.075-.228.117-.523.126-.886v-.246c.005-.207.008-.403.008-.586 0-.183.002-.397.008-.642v-.677c0-.339-.005-.633-.015-.882-.01-.212-.042-.37-.098-.48-.056-.108-.176-.214-.36-.317v-.049c.052 0 .127.004.226.014.14.013.244.021.31.021.114 0 .276-.01.487-.029.113-.004.2-.009.26-.014v.05a.613.613 0 0 0-.295.282c-.052.113-.083.294-.092.543-.014.297-.023.613-.025.95-.002.335-.004.736-.004 1.202v.31l-.006.311c0 .517-.051.932-.152 1.245-.101.313-.242.543-.424.691-.18.15-.388.245-.624.29a4.801 4.801 0 0 1-.882.067c-.263 0-.506-.019-.73-.057M74.611 161.422a70.195 70.195 0 0 0-.015 1.743c.08 0 .207-.003.381-.008h.282c.513 0 .871-.106 1.073-.32.203-.214.303-.557.303-1.027a1.3 1.3 0 0 0-.14-.582 1.176 1.176 0 0 0-.389-.455.978.978 0 0 0-.398-.148 3.522 3.522 0 0 0-.886-.014 1.323 1.323 0 0 0-.134.014c-.033.07-.052.19-.056.36a22.487 22.487 0 0 0-.021.437m.353-1.115c.272-.018.477-.028.614-.028.164 0 .35.024.556.07.207.048.381.114.523.198.225.137.395.326.511.568a1.695 1.695 0 0 1-.01 1.517 1.535 1.535 0 0 1-.5.582 1.215 1.215 0 0 1-.333.155c.052.075.145.226.282.45.207.34.39.625.543.855.156.23.324.453.505.667.181.214.37.387.564.518.196.132.392.198.59.198.042 0 .096-.005.161-.014.067-.005.12-.007.162-.007.034 0 .05.014.05.042 0 .033-.023.066-.07.099a.768.768 0 0 1-.177.088 1.308 1.308 0 0 1-.409.08c-.259 0-.495-.047-.709-.143a1.987 1.987 0 0 1-.578-.395 4.256 4.256 0 0 1-.466-.533c-.139-.188-.305-.43-.497-.727a18.592 18.592 0 0 0-.424-.631 4.756 4.756 0 0 0-.352-.441h-.374c-.047 0-.134.005-.26.014a2.235 2.235 0 0 1-.27.02c0 .702.02 1.332.057 1.892.015.193.052.336.112.43a.714.714 0 0 0 .311.24v.057a10.896 10.896 0 0 0-.797-.036 9.497 9.497 0 0 0-.818.036v-.064c.136-.07.253-.16.35-.264a.554.554 0 0 0 .151-.357c.01-.475.014-1.187.014-2.137a46.323 46.323 0 0 0-.056-2.201 1.102 1.102 0 0 0-.103-.431c-.059-.117-.17-.221-.335-.31v-.064a7.105 7.105 0 0 0 .783.043c.16 0 .393-.012.7-.036M83.401 160.258c.137-.023.25-.038.34-.042l-.065.049c-.178.076-.34.193-.487.353-.145.16-.3.362-.465.607-.22.324-.45.665-.688 1.023l-.674 1.015c0 .076-.002.165-.007.268v.276c0 .338.017.86.05 1.566v.028a.889.889 0 0 0 .116.406c.068.115.17.203.307.264v.057a10.92 10.92 0 0 0-.797-.036 8.27 8.27 0 0 0-.727.036v-.057a.793.793 0 0 0 .29-.253.671.671 0 0 0 .12-.374c.008-.433.013-1.08.013-1.94a42.004 42.004 0 0 1-.508-.89 19.132 19.132 0 0 0-.888-1.474 4.402 4.402 0 0 0-.364-.476 1.607 1.607 0 0 0-.469-.35l-.035-.056c.305.033.581.049.826.049.112 0 .284-.011.514-.035.113-.014.198-.023.254-.028l-.035.063a.293.293 0 0 0-.085.117.358.358 0 0 0-.042.145c0 .075.024.163.07.264.047.1.111.22.191.357l.085.148.183.33c.296.533.532.923.706 1.172a12.053 12.053 0 0 0 1.001-1.46l.03-.05c.102-.17.184-.316.246-.44a.757.757 0 0 0 .091-.307.47.47 0 0 0-.084-.276l-.022-.063c.057.005.117.012.184.02.18.02.334.029.466.029.093 0 .213-.012.36-.035M91.557 166.113v-.056a.787.787 0 0 0 .289-.254.676.676 0 0 0 .12-.374c.01-.475.015-1.188.015-2.138v-.063a43.44 43.44 0 0 0-1.658-.029c-.645 0-1.218.01-1.722.03v.048c0 .66.018 1.364.057 2.117a.88.88 0 0 0 .116.406.659.659 0 0 0 .306.264v.056a8.25 8.25 0 0 0-1.523 0v-.056a.795.795 0 0 0 .289-.254.684.684 0 0 0 .12-.374c.01-.475.015-1.188.015-2.138a41.648 41.648 0 0 0-.057-2.2 1.351 1.351 0 0 0-.092-.452c-.051-.122-.158-.238-.317-.346v-.049c.31.028.562.042.755.042.113 0 .275-.01.486-.028.113-.005.2-.009.262-.014v.05a.564.564 0 0 0-.282.32 1.797 1.797 0 0 0-.107.504c-.01.184-.016.387-.021.611-.004.223-.007.601-.007 1.132a45.873 45.873 0 0 0 3.38.007 40.856 40.856 0 0 0-.057-1.785 1.358 1.358 0 0 0-.092-.452c-.051-.122-.157-.237-.317-.345v-.05c.31.03.562.043.755.043.112 0 .275-.009.486-.028.113-.005.2-.01.262-.015v.05a.568.568 0 0 0-.282.321 1.797 1.797 0 0 0-.107.504c-.004.1-.01.2-.013.304a82.535 82.535 0 0 0-.014 1.848c0 .658.018 1.364.056 2.116a.873.873 0 0 0 .116.406.658.658 0 0 0 .307.265v.056a8.25 8.25 0 0 0-1.524 0M95.797 160.759a2.09 2.09 0 0 0-.71.5 2.267 2.267 0 0 0-.461.78 2.939 2.939 0 0 0-.162.99c0 .364.055.713.165 1.049.11.337.267.639.466.907.2.268.436.478.709.628a1.8 1.8 0 0 0 .882.226c.325 0 .626-.056.903-.166a2.141 2.141 0 0 0 1.214-1.235c.112-.294.169-.62.169-.977a3.9 3.9 0 0 0-.173-1.2 2.785 2.785 0 0 0-.48-.913 2.023 2.023 0 0 0-.726-.571 2.14 2.14 0 0 0-.907-.194c-.32 0-.617.059-.89.176m2.139-.303c.372.15.684.362.938.635.254.272.446.588.578.948.132.36.199.747.199 1.16 0 .429-.078.828-.23 1.197a2.84 2.84 0 0 1-1.584 1.577 3.067 3.067 0 0 1-2.293-.011 2.93 2.93 0 0 1-.952-.642 3.02 3.02 0 0 1-.64-.956 2.922 2.922 0 0 1-.228-1.15c0-.404.076-.788.229-1.15.154-.362.366-.682.639-.96a2.91 2.91 0 0 1 2.095-.874c.46 0 .878.075 1.249.226M105.38 160.353c-.03.073-.073.164-.13.272-.112.216-.178.372-.197.465-.005.029-.017.049-.035.06a.096.096 0 0 1-.05.018c-.02 0-.03-.047-.034-.141a.882.882 0 0 0-.022-.162c-.014-.066-.057-.12-.131-.16a.516.516 0 0 0-.214-.066h-.22a68.6 68.6 0 0 0-1.036-.007l-.035.5c-.025.297-.036.687-.036 1.172 0 .174.002.345.007.515v.466c0 .658.019 1.363.057 2.116.009.155.048.29.116.406.068.115.17.203.307.264v.056a8.215 8.215 0 0 0-1.524 0v-.056a.795.795 0 0 0 .289-.254.668.668 0 0 0 .12-.374c.009-.475.014-1.187.014-2.137v-1.256c0-.34-.005-.682-.014-1.03l-.006-.388c-.302 0-.56.006-.774.017a3.95 3.95 0 0 0-.638.089c-.075.014-.16.043-.253.088-.095.045-.18.097-.254.159a1.468 1.468 0 0 0-.093.077c-.084.08-.146.12-.183.12-.033 0-.05-.014-.05-.042.005-.047.052-.134.14-.261.077-.104.124-.18.143-.226l.056-.106c.079-.17.129-.29.149-.36h.085c.069.08.209.123.416.127.389.005.972.007 1.749.007.259 0 .663-.01 1.214-.028l.59-.014c.11-.005.235-.035.375-.092l.107-.035h.057a.939.939 0 0 1-.061.2M107.152 166.078c-.125.01-.274.02-.448.035l-.064.007v-.112a.715.715 0 0 0 .176-.135c.062-.061.118-.132.17-.214a1.48 1.48 0 0 0 .127-.251.65.65 0 0 0 .05-.233c.01-.362.013-.66.013-.896v-1.002a41.593 41.593 0 0 0-.056-2.201.88.88 0 0 0-.14-.416 1.012 1.012 0 0 0-.403-.34l-.015-.076.05.007c.216.018.42.035.61.049.191.014.332.02.427.02.075 0 .18-.001.311-.006s.294-.011.486-.021l.197-.014c.344-.023.593-.035.748-.035.202 0 .368.009.497.028.13.019.195.059.195.12 0 .103.011.23.035.38.014.119.021.21.021.276 0 .042-.013.063-.042.063-.028 0-.059-.033-.09-.098a1.1 1.1 0 0 0-.05-.1c-.072-.103-.2-.19-.389-.26-.188-.071-.46-.106-.818-.106-.095 0-.245.01-.452.028-.183.015-.322.024-.417.028-.023.076-.04.2-.049.374l-.007.127c-.009.193-.017.405-.02.635-.006.23-.007.62-.007 1.172.122 0 .284.002.486.007.221.009.374.014.458.014.043 0 .09-.002.141-.007h.134c.17-.01.32-.041.448-.096a.79.79 0 0 0 .35-.314h.05a3.323 3.323 0 0 1-.022.198 4.098 4.098 0 0 0-.02.2 2.388 2.388 0 0 0-.009.202v.26c0 .048.005.14.015.276h-.05a.563.563 0 0 0-.32-.282 1.813 1.813 0 0 0-.505-.106c-.24-.018-.625-.028-1.156-.028v.02a25 25 0 0 0 .013.907c.01.27.024.606.042 1.006a.453.453 0 0 0 .131.314.838.838 0 0 0 .307.19c.123.045.252.076.388.092.136.017.275.025.416.025.216 0 .403-.016.557-.046a1.02 1.02 0 0 0 .431-.201c.117-.1.257-.247.417-.444.102-.123.166-.184.19-.184.042 0 .064.02.064.063a.355.355 0 0 1-.039.145 4.221 4.221 0 0 1-.125.229c-.112.198-.18.344-.204.438v.014a.405.405 0 0 1-.113.197c-.052.048-.155.07-.31.07h-1.066c-.296 0-.557-.001-.782-.006h-.636c-.094 0-.203.005-.327.014M111.932 166.092c-.141.01-.285.021-.431.035l-.006-.077a.623.623 0 0 0 .172-.138c.059-.063.114-.139.162-.226.05-.087.089-.174.12-.26a.733.733 0 0 0 .046-.237c.009-.362.014-.66.014-.896v-1.002a46.306 46.306 0 0 0-.056-2.2 1.374 1.374 0 0 0-.095-.449.801.801 0 0 0-.314-.349v-.05c.31.03.562.043.755.043.112 0 .275-.009.487-.028.113-.005.2-.01.26-.015v.05a.571.571 0 0 0-.282.321 1.764 1.764 0 0 0-.105.504l-.014.304a82.535 82.535 0 0 0-.015 1.848c0 .334.005.636.015.906.009.271.023.606.042 1.006a.593.593 0 0 0 .095.321.598.598 0 0 0 .226.201c.092.047.195.081.31.102.115.021.239.032.37.032.189 0 .388-.027.597-.08.209-.055.379-.136.51-.245.08-.065.15-.137.209-.214a3.71 3.71 0 0 0 .188-.279c.074-.132.129-.198.162-.198.018 0 .03.01.038.028.007.02.01.04.01.064a.537.537 0 0 1-.038.177c-.026.07-.065.16-.117.267a4.433 4.433 0 0 0-.17.438.451.451 0 0 1-.097.201.257.257 0 0 1-.184.088l-.275.014c-.292.02-.503.028-.635.028a11.388 11.388 0 0 1-.86-.028 15.18 15.18 0 0 0-.713-.02c-.113 0-.24.004-.381.013M120.326 161.655c0 .118.003.299.008.543.01.264.013.475.013.635.071 0 .208.005.411.014.15.005.251.008.302.008a.79.79 0 0 0 .604-.283 1.1 1.1 0 0 0 .208-.392c.052-.162.077-.353.077-.574 0-.198-.03-.364-.092-.498a.812.812 0 0 0-.243-.317.897.897 0 0 0-.33-.162 1.506 1.506 0 0 0-.379-.046 4.333 4.333 0 0 0-.5.035c-.034.07-.053.19-.058.36a3.6 3.6 0 0 0-.006.148c-.01.169-.015.345-.015.529m.212 4.02c.142.086.421.128.84.128.188 0 .365-.025.532-.077.167-.052.303-.123.406-.212a.816.816 0 0 0 .254-.37c.047-.144.07-.291.07-.441 0-.198-.03-.385-.09-.561a1.337 1.337 0 0 0-.787-.819 1.915 1.915 0 0 0-.716-.123l-.205-.007a6.126 6.126 0 0 0-.254-.011 16.548 16.548 0 0 0-.283-.003c0 .183.002.458.007.825.01.499.014.887.014 1.164 0 .254.071.424.212.508m.353-5.354c.183-.005.315-.007.395-.007a1.455 1.455 0 0 1 .843.296c.138.104.253.239.343.405.088.167.133.364.133.59a1.397 1.397 0 0 1-.229.765 1.877 1.877 0 0 1-.568.554c.193.047.372.104.54.169.166.066.306.144.42.233.187.146.33.32.422.526.095.204.142.424.142.659 0 .24-.068.49-.204.75a1.572 1.572 0 0 1-.566.619c-.15.094-.326.155-.528.183a5.139 5.139 0 0 1-.698.043c-.132 0-.4-.005-.805-.015l-.536-.007a9.497 9.497 0 0 0-.818.036v-.064c.113-.056.22-.164.321-.324.1-.16.154-.313.158-.46.02-.328.03-.628.032-.898.002-.271.003-.63.003-1.076a45.001 45.001 0 0 0-.055-2.202 1.101 1.101 0 0 0-.103-.43c-.059-.117-.17-.22-.335-.31v-.064a8.04 8.04 0 0 0 .783.043c.202 0 .505-.005.91-.014M125.096 161.422a73.53 73.53 0 0 0-.014 1.743c.079 0 .206-.003.38-.008h.283c.513 0 .87-.106 1.073-.32.202-.214.303-.557.303-1.027 0-.198-.047-.391-.141-.582a1.174 1.174 0 0 0-.388-.455.988.988 0 0 0-.4-.148 3.512 3.512 0 0 0-.884-.014 1.29 1.29 0 0 0-.134.014.976.976 0 0 0-.057.36c-.004.075-.007.125-.007.148l-.014.289m.353-1.115c.273-.018.477-.028.614-.028.165 0 .349.024.557.07.206.048.38.114.522.198.225.137.396.326.512.568a1.722 1.722 0 0 1-.011 1.517 1.527 1.527 0 0 1-.501.582 1.223 1.223 0 0 1-.331.155c.052.075.145.226.28.45.208.34.39.625.545.855.155.23.323.453.504.667.182.214.369.387.564.518.196.132.392.198.589.198.043 0 .097-.005.163-.014.066-.005.12-.007.162-.007.033 0 .049.014.049.042 0 .033-.023.066-.07.099a.748.748 0 0 1-.177.088 1.297 1.297 0 0 1-.41.08c-.257 0-.494-.047-.707-.143a1.991 1.991 0 0 1-.58-.395 4.339 4.339 0 0 1-.465-.533c-.14-.188-.305-.43-.497-.727a20.525 20.525 0 0 0-.423-.631 4.767 4.767 0 0 0-.353-.441h-.373c-.048 0-.135.005-.262.014a2.221 2.221 0 0 1-.268.02c0 .702.019 1.332.057 1.892.014.193.05.336.112.43a.708.708 0 0 0 .31.24v.057a10.897 10.897 0 0 0-.797-.036 9.497 9.497 0 0 0-.818.036v-.064c.136-.07.254-.16.349-.264a.55.55 0 0 0 .153-.357c.008-.475.013-1.187.013-2.137a40.13 40.13 0 0 0-.056-2.201 1.102 1.102 0 0 0-.102-.431.77.77 0 0 0-.336-.31v-.064a7.176 7.176 0 0 0 1.482.007M134.338 163.46l-.748-1.99h-.021l-.811 1.99v.036a14.216 14.216 0 0 0 1.58 0v-.035zm1.503 1.906c.14.357.352.592.635.705v.05a4.736 4.736 0 0 0-.777-.064c-.277 0-.554.02-.832.064v-.043c0-.037.033-.101.099-.19.085-.118.127-.207.127-.268a.619.619 0 0 0-.018-.141.806.806 0 0 0-.04-.134l-.55-1.51a9.027 9.027 0 0 0-1.912 0l-.627 1.637a1.03 1.03 0 0 0-.085.33c0 .1.043.192.127.276v.043a3.737 3.737 0 0 0-.571-.043c-.212 0-.421.014-.628.043l.035-.043c.358-.113.617-.362.777-.747l1.708-4.128a.407.407 0 0 0 .02-.12.735.735 0 0 0-.151-.42 1.465 1.465 0 0 0-.385-.37l-.015-.05a10.467 10.467 0 0 0 .847.036h.19l.326.826 1.7 4.26zM142.027 160.243c.122.024.214.036.275.036a5.9 5.9 0 0 0 .487-.029c.113-.005.2-.009.261-.014v.05a.57.57 0 0 0-.282.321 1.763 1.763 0 0 0-.106.504l-.014.303a78.808 78.808 0 0 0-.015 1.849c0 .136-.002.39-.006.762-.005.41-.007.721-.007.938 0 .34.005.61.013.811 0 .043.003.083.008.12.004.113.007.186.007.22 0 .088-.02.133-.063.133-.029 0-.099-.068-.212-.205l-3.895-4.5h-.042c-.01.211-.014.46-.014.747 0 .118.002.29.007.515v.46c0 .657.02 1.363.057 2.115.01.156.048.29.116.406.068.115.17.203.307.264v.057a10.309 10.309 0 0 0-1.002-.032l-.162.01c-.029.005-.069.01-.12.015v-.057a.797.797 0 0 0 .29-.254.692.692 0 0 0 .12-.374c.01-.475.013-1.187.013-2.137 0-.117.002-.358.007-.72.005-.31.007-.564.007-.762 0-.287-.004-.53-.014-.734v-.049a1.186 1.186 0 0 0-.113-.413.878.878 0 0 0-.317-.335l-.022-.063.396.035c.103.01.207.017.31.021l3.887 4.593h.057c.005-.353.007-.879.007-1.58a46.39 46.39 0 0 0-.056-2.2 1.684 1.684 0 0 0-.078-.463c-.042-.12-.14-.232-.296-.336v-.056c.047.005.115.014.204.028M146.02 160.618c-.269.019-.449.059-.543.12-.01.06-.016.153-.02.275a9.56 9.56 0 0 0-.029.84 95.28 95.28 0 0 0-.007 1.41c0 .659.019 1.364.057 2.117a.66.66 0 0 0 .014.12c.132.102.32.173.565.212.243.037.568.056.973.056.315 0 .613-.067.892-.202.28-.133.526-.32.738-.556.212-.238.378-.514.497-.83a2.79 2.79 0 0 0 .179-1.001 3.38 3.38 0 0 0-.18-1.09 2.402 2.402 0 0 0-.496-.879 1.742 1.742 0 0 0-.716-.473 2.725 2.725 0 0 0-.914-.147c-.405 0-.741.009-1.01.028m2.185-.188c.369.125.692.305.969.54.278.236.495.519.654.85.157.333.236.696.236 1.09 0 .462-.08.889-.24 1.28-.16.394-.391.736-.692 1.028a3.13 3.13 0 0 1-1.08.677 3.96 3.96 0 0 1-1.382.247c-.16 0-.42-.012-.776-.035a13.217 13.217 0 0 0-.79-.035 10.312 10.312 0 0 0-.848.035v-.064c.127-.061.247-.164.361-.31a.741.741 0 0 0 .176-.424v-.395c.005-.47.007-1.013.007-1.63 0-.361-.005-.73-.013-1.107a50.71 50.71 0 0 0-.042-1.094c-.015-.263-.205-.52-.573-.768v-.043c.123.01.277.019.463.029a9.88 9.88 0 0 0 1.35-.021l.519-.025c.153-.008.329-.011.526-.011.414 0 .805.062 1.175.187" fill="#A6A9AB"/></g></svg>
